<?xml version="1.0" encoding="utf-8"?>
<svg xmlns="http://www.w3.org/2000/svg" version="1.2" baseProfile="tiny-ps" viewBox="0 0 100 100">
  <title>Wiredoor</title>
  <desc>Wiredoor brand mark</desc>
  <g transform="rotate(135 50 50)">
    <svg
      xmlns="http://www.w3.org/2000/svg"
      xmlnsXlink="http://www.w3.org/1999/xlink"
      version="1.1"
      id="Layer_1"
      x="0"
      y="0"
      height="100"
      width="100"
      viewBox="140 20 240 100"
      enable-background="new 0 0 100 100"
      preserveAspectRatio="xMinYMin"
      style="overflow: visible"
    >
      <polygon
        id="XMLID_00000075872212469489125700000003657845519588042886_"
        fill="#152168"
        points="328.176,219.692 328.185,231.5 279.857,279.839 279.857,219.702"
        style="fill: #152168"
      ></polygon>
      <polygon
        id="XMLID_00000075872212469489125700000003657845519588042886_"
        fill="#152168"
        points="180.308,71.824 180.308,120.161 120.161,120.143 168.5,71.815     "
        style="fill: #152168"
      ></polygon>
      <polygon
        id="XMLID_00000075872212469489125700000003657845519588042886_"
        fill="#152168"
        points="279.857,163.238 199.99,200 236.734,120.143  "
        style="fill: #152168"
      ></polygon>
      <polygon
        id="XMLID_00000075872212469489125700000003657845519588042886_"
        fill="#1EB1D8"
        points="279.857,163.238 243.104,199.991 243.104,200 243.095,200 199.99,200  "
        style="fill: #1EB1D8"
      ></polygon>
      <polygon
        id="XMLID_00000075872212469489125700000003657845519588042886_"
        fill="#1E87D5"
        points="236.734,120.143 199.99,200 199.99,156.887  "
        style="fill: #1E87D5"
      ></polygon>
      <polygon
        id="XMLID_00000075872212469489125700000003657845519588042886_"
        fill="#1E62BC"
        points="328.176,199.991 279.857,200.01 279.857,163.238  "
        style="fill: #1E62BC"
      ></polygon>
      <polygon
        id="XMLID_00000075872212469489125700000003657845519588042886_"
        fill="#1E38AE"
        points="200.009,71.824 236.734,120.143 200.009,120.161  "
        style="fill: #1E38AE"
      ></polygon>
      <polygon
        id="XMLID_00000075872212469489125700000003657845519588042886_"
        fill="#1E38AE"
        points="328.176,114.919 328.176,199.991 279.857,163.238 328.176,71.824  "
        style="fill: #1E38AE"
      ></polygon>
      <polygon
        id="XMLID_00000075872212469489125700000003657845519588042886_"
        fill="#1E5FC1"
        points="328.176,71.824 236.734,120.143 200.009,71.824 285.053,71.824  "
        style="fill: #1E5FC1"
      ></polygon>
      <polygon
        id="XMLID_00000075872212469489125700000003657845519588042886_"
        fill="#1E369B"
        points="328.176,71.824 279.857,163.238 236.734,120.143  "
        style="fill: #1E369B"
      ></polygon>
    </svg>
  </g>
</svg>